<svg width="32" height="32" viewBox="0 0 32 32" fill="none" xmlns="http://www.w3.org/2000/svg">
<path fill-rule="evenodd" clip-rule="evenodd" d="M31.54 15.77C31.54 24.4795 24.4795 31.54 15.77 31.54C7.06047 31.54 0 24.4795 0 15.77C0 7.06047 7.06047 0 15.77 0C24.4795 0 31.54 7.06047 31.54 15.77ZM12.8744 18.2811L12.2009 18.6431V20.8772L9.59421 22.3374L7 20.8772V17.8568L9.59421 16.3965L11.7768 17.6446L12.3506 17.3326V14.3746L14.9448 15.8848L15.4686 16.1469V19.7414L12.8744 18.2811ZM19.6218 17.3451L20.1457 17.6571L22.3657 16.3965L24.9599 17.8568V20.8772L22.3657 22.3374L19.7715 20.8772V18.6431L19.098 18.2811L16.5038 19.7414V16.1469L19.6218 14.3746V17.3451ZM20.1457 10.6928V8.29647L24.9849 10.9424V16.097L23.1639 15.0611L22.902 14.9113V12.203L20.1457 10.6928ZM15.9924 23.3733L18.5867 21.9755L19.0107 22.2376L20.7319 23.1736L16.0049 25.7697L11.278 23.1736L12.9866 22.2376L13.3982 21.9755L15.9924 23.3733ZM9.08285 12.1905V14.8988L8.82094 15.0486L7 16.0845V10.9424L11.8392 8.29647V10.6803L9.08285 12.1905ZM15.9924 15.2608L12.8744 13.4885L15.4811 12.0282V11.6663L13.3982 10.4681V7.51018L15.9924 6L18.5991 7.51018V10.4681L16.5163 11.6663V12.0282L19.1105 13.4885L16.5163 14.9488L15.9924 15.2608Z" fill="#0C2972"/>
</svg>
