<?xml version="1.0" standalone="no"?>
  <!DOCTYPE svg PUBLIC "-//W3C//DTD SVG 1.1//EN" "http://www.w3.org/Graphics/SVG/1.1/DTD/svg11.dtd" >
  <svg>
  <metadata>
  Created by font-carrier
  </metadata>
  <defs>
  <font id="iconfont" horiz-adv-x="1024" vert-adv-y="1024" >
    <font-face
      
      font-family="iconfont"
      
      font-weight="400"
      
      font-stretch="normal"
      
      units-per-em="1024"
      
      ascent="812"
      
      descent="-212"
      
    />
      <missing-glyph />

      
      <glyph glyph-name="x" unicode="&#x78;" horiz-adv-x="100"
        d="M20 20 L50 20 L50 -20 Z" />
      

      
      <glyph glyph-name="bianji" unicode="&#xE001;" d="M360.093-6.56L457.0923 90.4427H853.3333V-6.56H360.093ZM755.4176 438.1807L614.4896 580.0213 657.5019 623.0315C669.7045 635.2329 684.3435 641.3333 701.4272 641.3333 718.5067 641.3333 732.8427 635.2329 744.4352 623.0315L800.256 566.295C812.4587 554.7038 818.2528 540.5257 817.6427 523.7611 817.0325 506.9717 810.9355 492.7817 799.3429 481.1904L755.4176 438.1807ZM730.7093 413.4729L312.5077-6.56H170.6667V135.2811L589.7856 554.3987 730.7093 413.4729Z"  horiz-adv-x="1024" vert-adv-y="1024"  />

      
      <glyph glyph-name="fasongjiaoyi" unicode="&#xE002;" d="M170.6667-2.9333V233.8667L445.8667 298.9333 170.6667 364V598.6667L877.8667 297.8667 170.6667-2.9333Z"  horiz-adv-x="1024" vert-adv-y="1024"  />

      
      <glyph glyph-name="zhanghuguanli" unicode="&#xE003;" d="M48-47.7333V55.7333C48 80.6208 53.8739 101.7707 65.6213 119.1787 77.3406 136.6165 93.1554 150.3125 113.0667 160.2667 152.8887 180.1792 193.2514 195.8208 234.1547 207.2 275.0293 218.5792 323.5554 224.2667 379.7333 224.2667 435.2 224.2667 483.3835 218.5792 524.288 207.2 565.1627 195.8208 605.5125 180.1792 645.3333 160.2667 665.2459 150.3125 681.0752 136.6165 692.8213 119.1787 704.5419 101.7707 710.4 80.6208 710.4 55.7333V-47.7333H48ZM801.0667-47.7333V62.1333C801.0667 85.6 796.6293 111.7248 787.7547 140.512 778.8501 169.3248 763.7333 193.6875 742.4 213.6 771.5541 209.3333 799.6459 202.5792 826.6667 193.3333 853.6875 184.0875 879.6459 173.0667 904.5333 160.2667 926.5792 148.1792 944 133.2459 956.8 115.4667 969.6 97.6875 976 79.9125 976 62.1333V-47.7333H801.0667ZM378.6667 334.1333C335.2887 334.1333 298.1406 349.6085 267.2213 380.5547 236.2739 411.4743 220.8 448.6229 220.8 492.0004 220.8 535.3783 236.2739 572.541 267.2213 603.4884 298.1406 634.4077 335.2887 649.8671 378.6667 649.8671 422.0446 649.8671 459.2085 634.4077 490.1547 603.4884 521.0752 572.541 536.5333 535.3783 536.5333 492.0004 536.5333 448.6229 521.0752 411.4743 490.1547 380.5547 459.2085 349.6085 422.0446 334.1333 378.6667 334.1333ZM779.7333 492.0004C779.7333 448.6229 764.2752 411.4743 733.3547 380.5547 702.4085 349.6085 665.2459 334.1333 621.8667 334.1333 616.8875 334.1333 609.7792 334.6752 600.5333 335.7547 591.2875 336.8085 584.5333 338.0459 580.2667 339.4667 595.9125 361.5125 607.6459 385.5189 615.4667 411.4884 623.2875 437.4298 627.2 464.2671 627.2 492.0004 627.2 519.7338 623.1168 546.2298 614.9547 571.4884 606.7627 596.7189 595.2 620.7117 580.2667 643.4671 586.6667 645.6004 593.4208 647.2077 600.5333 648.2884 607.6459 649.341 614.7541 649.8671 621.8667 649.8671 665.2459 649.8671 702.4085 634.4077 733.3547 603.4884 764.2752 572.541 779.7333 535.3783 779.7333 492.0004ZM118.4 22.6667H640V55.7333C640 65.6875 638.2208 73.6832 634.6667 79.712 631.1125 85.7707 624 91.6459 613.3333 97.3333 580.6208 114.4 544.896 128.096 506.1547 138.4213 467.3835 148.7168 424.8887 153.8667 378.6667 153.8667 333.1554 153.8667 291.0153 148.7168 252.2453 138.4213 213.504 128.096 177.7779 114.4 145.0667 97.3333 134.4 91.6459 127.2887 85.7707 123.7333 79.712 120.1779 73.6832 118.4 65.6875 118.4 55.7333V22.6667ZM378.6667 404.5338C402.8446 404.5338 423.4667 413.0671 440.5333 430.1338 457.6 447.2004 466.1333 467.8229 466.1333 492.0004 466.1333 516.1783 457.6 536.8004 440.5333 553.8671 423.4667 570.9338 402.8446 579.4671 378.6667 579.4671 354.4887 579.4671 333.8667 570.7631 316.8 553.3551 299.7333 535.9189 291.2 515.1117 291.2 490.9338 291.2 467.4671 299.7333 447.2004 316.8 430.1338 333.8667 413.0671 354.4887 404.5338 378.6667 404.5338Z"  horiz-adv-x="1024" vert-adv-y="1024"  />

      
      <glyph glyph-name="kualianjiaoyiguanli" unicode="&#xE004;" d="M135.4662-119.2V164.5333H263.4662V335.2H476.8V435.4671H348.7996V719.2004H675.2V435.4671H547.2V335.2H760.5333V164.5333H888.5333V-119.2H562.1333V164.5333H690.1333V264.8H333.8662V164.5333H461.8667V-119.2H135.4662ZM419.1996 505.8671H604.8V648.8004H419.1996V505.8671ZM205.8662-48.8H391.4662V94.1333H205.8662V-48.8ZM632.5333-48.8H818.1333V94.1333H632.5333V-48.8Z"  horiz-adv-x="1024" vert-adv-y="1024"  />

      
      <glyph glyph-name="guanbiyangshi1" unicode="&#xE005;" d="M416.6532 174.6112L512 269.9584 607.3472 174.6112 637.3888 204.6528 542.0416 300 637.3888 395.3468 607.3472 425.3879 512 330.0416 416.6532 425.3879 386.6121 395.3468 481.9584 300 386.6121 204.6528 416.6532 174.6112ZM512 44C476.736 44 443.5413 50.7499 412.4211 64.2453 381.2834 77.7408 354.1769 96.0277 331.1019 119.1019 308.0273 142.176 289.7417 169.2821 276.2449 200.4203 262.7482 231.5413 256 264.736 256 300 256 335.264 262.7482 368.5696 276.2449 399.9185 289.7417 431.2653 308.0273 458.4764 331.1019 481.5509 354.1769 504.6259 381.2834 522.807 412.4211 536.0947 443.5413 549.3649 476.736 556 512 556 547.264 556 580.5696 549.3649 611.9168 536.0947 643.264 522.807 670.4768 504.6259 693.5509 481.5509 716.6251 458.4764 734.8053 431.3783 748.096 400.2581 761.3653 369.12 768 335.6992 768 300 768 264.3008 761.3653 230.9952 748.096 200.0832 734.8053 169.1712 716.6251 142.176 693.5509 119.1019 670.4768 96.0277 643.3792 77.7408 612.2581 64.2453 581.12 50.7499 547.6992 44 512 44Z"  horiz-adv-x="1024" vert-adv-y="1024"  />

      
      <glyph glyph-name="shezhi" unicode="&#xE006;" d="M399.3007-48.7915L384.384 65.8837C376.3038 68.3669 366.3595 72.7189 354.5502 78.9355 342.7409 85.1477 333.4178 91.6757 326.5809 98.5109L218.4337 53.7621 128 215.9808 217.5014 284.9728C216.8798 289.9477 216.1092 295.392 215.1893 301.3056 214.2443 307.1979 213.7719 312.9408 213.7719 318.5344 213.7719 322.8864 214.2443 328.0192 215.1893 333.9371 216.1092 339.8293 216.8798 345.8837 217.5014 352.1003L128 419.2252 218.4337 577.7173 321.9196 535.7636C331.2427 543.2218 341.498 550.0587 352.6857 556.2743 363.8733 562.4896 374.4393 567.462 384.384 571.191L399.3007 684H582.0331L596.0192 570.2588C607.2064 564.6652 617.6213 559.3818 627.2683 554.4098 636.8896 549.4374 646.6731 542.9111 656.6187 534.8314L762.9013 577.7173 853.3333 419.2252 759.1723 348.3712C761.0368 342.7776 761.9669 337.184 761.9669 331.5904V316.6699C761.9669 312.9408 761.8176 308.2816 761.5189 302.688 761.1947 297.0944 760.7253 290.5664 760.1024 283.1083L850.5344 215.9808 760.1024 53.7621 651.9552 99.4453C642.6325 91.9872 633.6213 85.6213 624.9173 80.352 616.2176 75.0571 606.8949 70.5429 596.9493 66.8139L582.0331-48.7915H399.3007ZM486.9376 199.2C520.4992 199.2 548.7787 210.6987 571.776 233.696 594.7733 256.6933 606.272 284.9728 606.272 318.5344 606.272 352.1003 594.7733 380.3797 571.776 403.3762 548.7787 426.3731 520.4992 437.8714 486.9376 437.8714 453.9947 437.8714 425.8778 426.3731 402.5826 403.3762 379.2623 380.3797 367.6023 352.1003 367.6023 318.5344 367.6023 284.9728 379.2623 256.6933 402.5826 233.696 425.8778 210.6987 453.9947 199.2 486.9376 199.2Z"  horiz-adv-x="1024" vert-adv-y="1024"  />

      
      <glyph glyph-name="pingsiyonghu" unicode="&#xE007;" d="M170.6667-10.3019C170.6667 55.5328 196.8209 118.6752 243.3754 165.2288 289.9298 211.7867 353.0709 237.9413 418.909 237.9413 484.7488 237.9413 547.8869 211.7867 594.4448 165.2288 640.9984 118.6752 667.1531 55.5328 667.1531-10.3019H170.6667ZM418.909 268.9685C316.0435 268.9685 232.7275 352.288 232.7275 455.1514 232.7275 558.0169 316.0435 641.3333 418.909 641.3333 521.7749 641.3333 605.0901 558.0169 605.0901 455.1514 605.0901 352.288 521.7749 268.9685 418.909 268.9685ZM729.2117 144.8469H853.3333V82.7883H729.2117V144.8469ZM636.1216 300H853.3333V237.9413H636.1216V300ZM698.1803 455.1514H853.3333V393.091H698.1803V455.1514Z"  horiz-adv-x="1024" vert-adv-y="1024"  />

      
      <glyph glyph-name="shouqi" unicode="&#xE008;" d="M766.9333 547.4671L817.0667 497.3338 619.7333 300 817.0667 102.6667 766.9333 52.5333 519.4667 300 766.9333 547.4671ZM454.4 547.4671L504.5333 497.3338 307.2013 300 504.5333 102.6667 454.4 52.5333 206.9346 300 454.4 547.4671Z"  horiz-adv-x="1024" vert-adv-y="1024"  />

      
      <glyph glyph-name="zhankai" unicode="&#xE009;" d="M257.0658 52.5333L206.9325 102.6667 404.2658 300 206.9325 497.3329 257.0658 547.4662 504.5333 300 257.0658 52.5333ZM569.6 52.5333L519.4667 102.6667 716.8 300 519.4667 497.3329 569.6 547.4662 817.0667 300 569.6 52.5333Z"  horiz-adv-x="1024" vert-adv-y="1024"  />

      
      <glyph glyph-name="zilianguanli" unicode="&#xE00A;" d="M128 684H320V492H128V684ZM128 108H320V-84H128V108ZM704 684H896V492H704V684ZM704 108H896V-84H704V108ZM358.4 607.2H665.6V530.4H358.4V607.2ZM204.8 453.6H281.6V146.4H204.8V453.6ZM742.4 453.6H819.2V146.4H742.4V453.6ZM358.4 69.6H665.6V-7.2H358.4V69.6Z"  horiz-adv-x="1024" vert-adv-y="1024"  />

      
      <glyph glyph-name="luoyaoqiguanli" unicode="&#xE00B;" d="M362.6667-62.6667V22.6667H183.4667C162.1333 22.6667 144 30.1333 129.0667 45.0667 114.1333 60 106.6667 78.1333 106.6667 99.4667V585.8667C106.6667 607.2 114.1333 625.3333 129.0667 640.2667 144 655.2 162.1333 662.6667 183.4667 662.6667H840.5333C861.8667 662.6667 880 655.2 894.9333 640.2667 909.8667 625.3333 917.3333 607.2 917.3333 585.8667V460H853.3333V585.8667C853.3333 589.4221 852.096 592.4373 849.6213 594.912 847.1168 597.4153 844.0875 598.6667 840.5333 598.6667H183.4667C179.9113 598.6667 176.896 597.4153 174.4213 594.912 171.9181 592.4373 170.6667 589.4221 170.6667 585.8667V99.4667C170.6667 95.9125 171.9181 92.8832 174.4213 90.3787 176.896 87.904 179.9113 86.6667 183.4667 86.6667H840.5333C844.0875 86.6667 847.1168 87.904 849.6213 90.3787 852.096 92.8832 853.3333 95.9125 853.3333 99.4667V297.8667C853.3333 301.4208 852.096 304.4501 849.6213 306.9547 847.1168 309.4293 844.0875 310.6667 840.5333 310.6667H520.5333L610.1333 221.0667 565.3333 176.2667 398.9333 342.6667 565.3333 509.0667 610.1333 464.2667 520.5333 374.6667H840.5333C861.8667 374.6667 880 367.2 894.9333 352.2667 909.8667 337.3333 917.3333 319.2 917.3333 297.8667V99.4667C917.3333 78.1333 909.8667 60 894.9333 45.0667 880 30.1333 861.8667 22.6667 840.5333 22.6667H661.3333V-62.6667H362.6667Z"  horiz-adv-x="1024" vert-adv-y="1024"  />

      
      <glyph glyph-name="xiala" unicode="&#xE00C;" d="M638.4469 428H385.5535C348.1335 428 327.6919 384.3563 351.6476 355.6075L478.0928 203.872C495.7397 182.7008 528.2603 182.7008 545.9072 203.872L672.3541 355.6075C696.3072 384.3563 675.8656 428 638.4469 428Z"  horiz-adv-x="1024" vert-adv-y="1024"  />

      
      <glyph glyph-name="ziyuanguanli" unicode="&#xE00D;" d="M330.6667 189.0667H381.8667V338.4H330.6667V289.3333H266.6667V238.1333H330.6667V189.0667ZM424.5333 238.1333H757.3333V289.3333H424.5333V238.1333ZM642.1333 346.9333H693.3333V396H757.3333V447.2H693.3333V496.2667H642.1333V346.9333ZM266.6667 396H599.4667V447.2H266.6667V396ZM362.6667-62.6667V22.6667H183.4667C162.1333 22.6667 144 30.1333 129.0667 45.0667 114.1333 60 106.6667 78.1333 106.6667 99.4667V585.8667C106.6667 607.2 114.1333 625.3333 129.0667 640.2667 144 655.2 162.1333 662.6667 183.4667 662.6667H840.5333C861.8667 662.6667 880 655.2 894.9333 640.2667 909.8667 625.3333 917.3333 607.2 917.3333 585.8667V99.4667C917.3333 78.1333 909.8667 60 894.9333 45.0667 880 30.1333 861.8667 22.6667 840.5333 22.6667H661.3333V-62.6667H362.6667ZM183.4667 86.6667H840.5333C843.3792 86.6667 846.2208 88.0875 849.0667 90.9333 851.9125 93.7792 853.3333 96.6208 853.3333 99.4667V585.8667C853.3333 588.7113 851.9125 591.5554 849.0667 594.4 846.2208 597.2446 843.3792 598.6667 840.5333 598.6667H183.4667C180.6221 598.6667 177.7779 597.2446 174.9333 594.4 172.0887 591.5554 170.6667 588.7113 170.6667 585.8667V99.4667C170.6667 96.6208 172.0887 93.7792 174.9333 90.9333 177.7779 88.0875 180.6221 86.6667 183.4667 86.6667ZM170.6667 86.6667V598.6667 86.6667Z"  horiz-adv-x="1024" vert-adv-y="1024"  />

      
      <glyph glyph-name="zhaxunjiaoyi" unicode="&#xE00E;" d="M638.9291 52.1493C662.3701 52.1493 682.3808 60.2901 698.9611 76.5717 715.5413 92.8789 723.8315 113.0389 723.8315 137.0517 723.8315 160.4928 715.5413 180.5035 698.9611 197.0837 682.3808 213.664 662.3701 221.9584 638.9291 221.9584 614.9163 221.9584 594.7648 213.664 578.4832 197.0837 562.176 180.5035 554.0224 160.4928 554.0224 137.0517 554.0224 113.0389 562.176 92.8789 578.4832 76.5717 594.7648 60.2901 614.9163 52.1493 638.9291 52.1493V52.1493ZM813.8837-78.2101L716.1131 19.5563C705.2501 11.552 693.3931 5.5488 680.5419 1.5467 667.6651-2.4555 653.7941-4.4565 638.9291-4.4565 599.4795-4.4565 566.0288 9.2651 538.5856 36.7083 511.1424 64.1557 497.4208 97.6021 497.4208 137.0517 497.4208 175.9296 511.1424 209.2395 538.5856 236.9813 566.0288 264.7019 599.4795 278.56 638.9291 278.56 677.8069 278.56 711.104 264.8384 738.8245 237.3952 766.5664 209.9477 780.4373 176.5013 780.4373 137.0517 780.4373 122.1867 778.2955 108.1792 774.0203 95.0293 769.7195 81.8795 763.5669 69.8731 755.5627 59.0101L853.3333-37.9029 813.8837-78.2101ZM248.7104-31.0421C226.4119-31.0421 207.8302-23.6096 192.9647-8.7445 178.0992 6.1205 170.6667 24.7019 170.6667 47.0037V563.2896C170.6667 585.5881 178.0992 604.1698 192.9647 619.0353 207.8302 633.9008 226.4119 641.3333 248.7104 641.3333H512L702.3915 451.799V348.8832C692.1003 352.3136 681.5232 355.1723 670.6603 357.4592 659.7973 359.7461 649.2203 360.8896 638.9291 360.8896 608.6272 360.8896 580.7573 355.1723 555.328 343.7376 529.8731 332.3029 507.1403 317.152 487.1296 298.2848L303.5981 300V248.544H445.1072C435.9595 234.2507 429.0987 219.2448 424.5227 203.5349 419.9488 187.7995 417.6614 171.3557 417.6614 154.2037H303.5981V102.7477H417.6614C422.2357 76.448 431.2448 51.8635 444.6933 28.9899 458.1205 6.1205 475.1232-13.8901 495.7056-31.0421H248.7104ZM484.5568 423.4974H645.7899L484.5568 584.7305 645.7899 423.4974 484.5568 584.7305V423.4974Z"  horiz-adv-x="1024" vert-adv-y="1024"  />

      
      <glyph glyph-name="baocun" unicode="&#xE00F;" d="M887.4667 510.1329V21.6C887.4667-6.1333 878.2208-29.2459 859.7333-47.7333 841.2459-66.2208 818.1333-75.4667 790.4-75.4667H233.6004C205.8671-75.4667 182.7563-66.2208 164.2671-47.7333 145.7783-29.2459 136.5338-6.1333 136.5338 21.6V578.3996C136.5338 606.1329 145.7783 629.2437 164.2671 647.7329 182.7563 666.2217 205.8671 675.4662 233.6004 675.4662H722.1333L887.4667 510.1329ZM512 90.9333C539.7333 90.9333 563.3835 100.7168 582.9547 120.288 602.496 139.8293 612.2667 163.4667 612.2667 191.2 612.2667 219.6459 602.496 243.4667 582.9547 262.6667 563.3835 281.8667 539.7333 291.4667 512 291.4667 484.2667 291.4667 460.6293 281.8667 441.088 262.6667 421.5189 243.4667 411.7338 220 411.7338 192.2667 411.7338 163.8208 421.5189 139.8293 441.088 120.288 460.6293 100.7168 484.2667 90.9333 512 90.9333ZM274.1338 380H625.0667V537.8662H274.1338V380Z"  horiz-adv-x="1024" vert-adv-y="1024"  />

      
      <glyph glyph-name="touxiangshangzhuan" unicode="&#xE011;" d="M512 87.7333C558.2208 87.7333 596.9792 103.5499 628.2667 135.1787 659.5541 166.8373 675.2 205.4251 675.2 250.9333 675.2 297.1584 659.3835 335.9125 627.7547 367.2 596.096 398.49 557.5125 414.1342 512 414.1342 465.7792 414.1342 427.0208 398.3049 395.7338 366.6453 364.445 335.0165 348.8004 296.4459 348.8004 250.9333 348.8004 204.7125 364.6298 165.9584 396.2884 134.6667 427.9168 103.3792 466.4875 87.7333 512 87.7333ZM512 158.1333C485.6875 158.1333 463.6459 167.0251 445.8667 184.8 428.0875 202.5792 419.2004 224.6251 419.2004 250.9333 419.2004 277.2459 428.0875 299.2917 445.8667 317.0667 463.6459 334.8459 485.6875 343.7333 512 343.7333 538.3125 343.7333 560.3541 334.8459 578.1333 317.0667 595.9125 299.2917 604.8 277.2459 604.8 250.9333 604.8 224.6251 595.9125 202.5792 578.1333 184.8 560.3541 167.0251 538.3125 158.1333 512 158.1333ZM190.9338-76.5333C163.2004-76.5333 140.0896-67.2875 121.6004-48.8 103.1117-30.3083 93.8671-7.2 93.8671 20.5333V481.3342C93.8671 509.0675 103.1117 532.1788 121.6004 550.6675 140.0896 569.1567 163.2004 578.4009 190.9338 578.4009H311.4671L398.9338 674.4009H625.0667L712.5333 578.4009H833.0667C860.8 578.4009 883.9125 569.1567 902.4 550.6675 920.8875 532.1788 930.1333 509.0675 930.1333 481.3342V20.5333C930.1333-7.2 920.8875-30.3083 902.4-48.8 883.9125-67.2875 860.8-76.5333 833.0667-76.5333H190.9338ZM833.0667-6.1333C840.8875-6.1333 847.2875-3.6416 852.2667 1.3333 857.2459 6.3125 859.7333 12.7125 859.7333 20.5333V481.3342C859.7333 489.1567 857.2459 495.5567 852.2667 500.5342 847.2875 505.5121 840.8875 508.0009 833.0667 508.0009H682.6667L594.1333 604.0009H429.8667L341.3338 508.0009H190.9338C183.1117 508.0009 176.7117 505.5121 171.7338 500.5342 166.7563 495.5567 164.2671 489.1567 164.2671 481.3342V20.5333C164.2671 12.7125 166.7563 6.3125 171.7338 1.3333 176.7117-3.6416 183.1117-6.1333 190.9338-6.1333H833.0667Z"  horiz-adv-x="1024" vert-adv-y="1024"  />

      
      <glyph glyph-name="tabguanbi" unicode="&#xE017;" d="M512 345.248L670.4 503.6484 715.648 458.4004 557.248 300 715.648 141.6 670.4 96.352 512 254.752 353.5996 96.352 308.3516 141.6 466.752 300 308.3516 458.4004 353.5996 503.6484 512 345.248Z"  horiz-adv-x="1024" vert-adv-y="1024"  />

      
      <glyph glyph-name="jiaoyanzhong" unicode="&#xE018;" d="M349.3022 488.3332C394.4644 527.4671 452.2411 548.9711 512 548.8879 649.4635 548.8879 760.8917 437.4601 760.8917 300 760.8917 246.8373 744.2133 197.5573 715.84 157.1349L636.4459 300H711.1125C711.1168 339.0357 699.6437 377.2096 678.1269 409.7775 656.6059 442.3458 625.9883 467.8703 590.08 483.1778 554.1717 498.4858 514.5557 502.9005 476.16 495.8741 437.7643 488.8474 402.2771 470.6893 374.1163 443.6574L349.3022 488.3332ZM674.7008 111.6651C629.5381 72.5312 571.7589 51.0272 512 51.1083 374.5395 51.1083 263.1121 162.5365 263.1121 300 263.1121 353.1627 279.7875 402.4414 308.1609 442.8612L387.5563 300H312.8896C312.8866 260.9643 324.3575 222.7904 345.8761 190.2187 367.3946 157.6512 398.0113 132.128 433.92 116.8192 469.8283 101.5104 509.4443 97.0987 547.84 104.1259 586.24 111.1488 621.7259 129.3077 649.8859 156.3413L674.7008 111.6651Z"  horiz-adv-x="1024" vert-adv-y="1024"  />

      
      <glyph glyph-name="jiaoyanwancheng" unicode="&#xE019;" d="M459.1957 220.7893L687.9744 449.5936 723.1957 414.4009 459.1957 150.4064 300.8047 308.7979 335.9974 343.9893 459.1957 220.7893Z"  horiz-adv-x="1024" vert-adv-y="1024"  />

      
      <glyph glyph-name="qihuan" unicode="&#xE01A;" d="M627.2 298.5792L768 157.7792 627.2 16.9792 586.9781 57.2011 659.1147 129.3632 284.4446 129.3333V186.2251H659.1147L586.9781 258.3573 627.2 298.5792ZM396.8 583.0234L437.0219 542.8032 364.8853 470.6679H739.5541V413.7792H364.8853L437.0219 341.6427 396.8 301.4251 256 442.2234 396.8 583.0234Z"  horiz-adv-x="1024" vert-adv-y="1024"  />

      
      <glyph glyph-name="zhizhi" unicode="&#xE01B;" d="M362.6667 487.1266L412.8 534.6667 661.3333 300 412.8 65.3333 362.6667 112.8725 560 300 362.6667 487.1266Z"  horiz-adv-x="1024" vert-adv-y="1024"  />

      
      <glyph glyph-name="jinyong" unicode="&#xE022;" d="M512 684C298.6667 684 128 513.3333 128 300S298.6667-84 512-84 896 86.6667 896 300 725.3333 684 512 684ZM661.3333 270.1333H354.1333C337.0667 270.1333 324.2667 282.9333 324.2667 300S337.0667 329.8667 354.1333 329.8667H661.3333C678.4 329.8667 691.2 317.0667 691.2 300S678.4 270.1333 661.3333 270.1333Z"  horiz-adv-x="1024" vert-adv-y="1024"  />

      
      <glyph glyph-name="shanshu" unicode="&#xE023;" d="M836.2667 543.2C780.8 547.4667 721.0667 551.7333 661.3333 556V556L652.8 602.9333 652.8 602.9333C648.5333 637.0667 640 684 558.9333 684H465.0667C379.7333 684 375.4667 637.0667 366.9333 602.9333L358.4 556C328.5333 556 294.4 551.7333 260.2667 547.4667L187.7333 543.2C174.9333 538.9333 162.1333 526.1333 162.1333 513.3333S174.9333 487.7333 192 487.7333L264.5333 496.2667C452.2667 513.3333 640 509.0667 832 487.7333H836.2667C849.0667 487.7333 861.8667 496.2667 861.8667 513.3333 861.8667 526.1333 849.0667 538.9333 836.2667 543.2ZM738.1333 453.6H285.8667C273.0667 453.6 260.2667 449.3333 251.7333 440.8 247.4667 428 238.9333 415.2 243.2 402.4L264.5333 35.4667C268.8-15.7333 273.0667-84 396.8-84H627.2C750.9333-84 755.2-15.7333 759.4667 39.7333L780.8 406.6667C780.8 419.4667 776.5333 432.2667 768 440.8 759.4667 445.0667 750.9333 453.6 738.1333 453.6ZM571.7333 95.2H452.2667C439.4667 95.2 426.6667 108 426.6667 120.8 426.6667 133.6 439.4667 146.4 452.2667 146.4H571.7333C584.5333 146.4 597.3333 133.6 597.3333 120.8 597.3333 108 584.5333 95.2 571.7333 95.2ZM601.6 236H422.4C409.6 236 396.8 248.8 396.8 261.6 396.8 274.4 409.6 287.2 422.4 287.2H601.6C614.4 287.2 627.2 274.4 627.2 261.6 627.2 248.8 614.4 236 601.6 236Z"  horiz-adv-x="1024" vert-adv-y="1024"  />

      
      <glyph glyph-name="mimakexian" unicode="&#xE024;" d="M512 684C663.8933 684 808.1067 594.8267 906.6667 439.9467 949.3333 372.96 949.3333 263.7333 906.6667 197.1733 857.1733 119.52 796.5867 58.5067 729.1733 16.6933 661.76-24.6933 587.9467-46.88 512-46.88 360.1067-46.88 215.8933 41.8667 117.3333 197.1733 74.6667 264.16 74.6667 372.96 117.3333 439.9467 166.8267 517.6 227.4133 578.6133 294.8267 620.4267 362.24 661.8133 436.0533 684 512 684ZM339.6267 318.3467C339.6267 223.2 416.4267 145.9733 512 145.9733 607.5733 145.9733 684.3733 223.2 684.3733 318.3467 684.3733 413.4933 607.5733 490.72 512 490.72 416.4267 490.72 339.6267 413.4933 339.6267 318.3467ZM390.4166 318.3467C390.4166 385.7617 445.0304 440.375 512.0171 440.375 579.0037 440.375 634.0437 385.335 634.0437 318.3467 634.0437 251.36 579.0037 196.7467 512.0171 196.7467 445.0304 196.7467 390.4166 251.36 390.4166 318.3467Z"  horiz-adv-x="1024" vert-adv-y="1024"  />

      
      <glyph glyph-name="yanzhengma" unicode="&#xE025;" d="M853.3333 520.3665C852.1515 531.8985 847.3173 542.7584 839.5221 551.3766 831.7312 559.9945 821.3845 565.9243 809.984 568.3081 762.5515 575.7269 715.6992 586.4563 669.7813 600.4169 624.8107 618.7635 582.6475 643.2828 544.512 673.2599 534.7627 680.2428 523.0507 684 511.0357 684 499.0208 684 487.3088 680.2428 477.5595 673.2599 441.4592 640.0444 398.3253 615.3131 351.3395 600.8896 307.8327 582.9931 261.8735 571.6915 214.9961 567.363 203.3967 565.4985 192.7983 559.7116 184.9882 550.9781 177.178 542.2451 172.6336 531.0997 172.1216 519.4214 172.1216 519.4214 170.6667 399.1091 170.6667 293.2117 170.6667 101.5061 398.0442-84 511.7611-84 625.4507-84 818.1803 46.8587 848.9984 290.3189 856.7168 434.1129 851.3749 519.8938 851.3749 519.8938L853.3333 520.3959V520.3665ZM729.5189 372.2859L491.9893 149.4165C481.2971 139.2832 464.9685 137.6917 452.4971 145.5765L446.2635 150.8629 315.2047 286.4789C309.3265 292.832 306.2255 301.2459 306.5847 309.8773 306.944 318.5045 310.7337 326.6368 317.12 332.4821 323.5063 338.3317 331.9663 341.4165 340.6387 341.0581 349.3111 340.704 357.4861 336.9323 363.3643 330.5792L471.2917 217.9477 685.1925 419.2546C688.3541 422.1504 692.0619 424.3977 696.0981 425.8684 700.1344 427.3391 704.4224 428.0043 708.7189 427.8259 713.0155 427.648 717.2352 426.6295 721.1349 424.8294 725.0347 423.0293 728.5376 420.4826 731.4517 417.3346 734.3616 414.1867 736.6187 410.4994 738.0992 406.4828 739.5755 402.4666 740.2453 398.1999 740.0661 393.9264 739.8869 389.6525 738.8629 385.4562 737.0539 381.5744 735.2448 377.696 732.6848 374.2101 729.5189 371.3131V372.2859Z"  horiz-adv-x="1024" vert-adv-y="1024"  />

      
      <glyph glyph-name="mimabukexian" unicode="&#xE026;" d="M844.9835 675.3604C856.4992 686.88 875.3067 686.88 886.8224 675.3604 898.7221 663.8404 898.7221 645.4093 886.8224 633.8893L178.2771-74.9547C172.5197-80.7147 165.2267-83.7867 157.5505-83.7867 149.8739-83.7867 142.5809-80.7147 136.8235-75.3387 125.3086-63.8187 125.3086-45.0027 136.8235-33.4827L249.6457 79.4475C215.6489 110.6453 184.2684 148.1621 156.7872 191.1403 118.4043 251.424 118.4043 349.344 156.7872 409.6286 201.3111 479.5145 255.8144 534.4247 316.4591 572.0559 377.1042 608.919 443.5072 629.2702 511.8293 629.2702 588.0576 629.2702 662.1525 604.2965 727.8848 558.1461L844.9835 675.3604ZM598.8352 428.9715C574.0629 445.7783 544.1365 455.3233 511.8293 455.3233 425.85 455.3233 356.7612 385.821 356.7612 300.192 356.7612 267.8805 366.5118 237.9499 383.2452 213.1733L416.41 246.3723C407.3523 262.3723 402.0425 280.8 402.0425 300.192 402.0425 360.48 451.1744 410.0139 511.8165 410.0139 531.1787 410.0139 549.5808 404.713 565.5637 395.6698L598.8352 428.9715ZM867.6395 408.4907C856.5077 426.1542 844.608 442.6658 832.3243 458.0254 818.1248 476.0725 791.2576 477.6085 775.1339 461.481L659.9893 346.2848C668.4331 320.9408 669.9648 291.7568 662.2891 261.4208 648.8576 207.2811 605.0987 163.5051 550.9803 150.0651 520.6571 142.3851 491.4859 143.9211 466.1547 152.3691L371.7329 57.9093C352.5414 38.7093 358.6825 4.9173 384.3989-5.0667 425.4686-20.8107 468.0747-28.8747 511.8293-28.8747 580.1515-28.8747 646.5536-8.9067 707.2 28.3413 768.9941 66.7413 824.6485 123.1851 869.5552 194.9931 906.0224 252.9771 904.1024 350.5088 867.6395 408.4907ZM621.6149 300.1963C621.6149 239.9083 572.4843 190.3723 511.8379 190.3723H511.8379C509.5381 190.3723 507.6181 190.3723 505.3141 191.1403L620.8469 306.7243C621.6149 304.4203 621.6149 302.5003 621.6149 300.1963V300.1963Z"  horiz-adv-x="1024" vert-adv-y="1024"  />

      
      <glyph glyph-name="mima" unicode="&#xE027;" d="M802.1333 432.2667C797.8667 440.8 789.3333 440.8 780.8 440.8H712.5333V474.9333C712.5333 530.4 691.2 581.6 652.8 620 614.4 662.6667 563.2 684 512 684S409.6 662.6667 371.2 624.2667C332.8 585.8667 311.4667 530.4 311.4667 474.9333V440.8H247.4667C238.9333 440.8 230.4 436.5333 226.1333 432.2667 217.6 423.7333 213.3333 415.2 213.3333 406.6667V-7.2C213.3333-15.7333 217.6-24.2667 221.8667-32.8 230.4-37.0667 238.9333-41.3333 247.4667-41.3333H776.5333C785.0667-41.3333 793.6-37.0667 797.8667-32.8 802.1333-24.2667 806.4-15.7333 806.4-7.2V406.6667C810.6667 415.2 806.4 423.7333 802.1333 432.2667ZM379.7333 474.9333C379.7333 513.3333 392.5333 547.4667 418.1333 573.0667 443.7333 598.6667 477.8667 615.7333 512 615.7333S580.2667 602.9333 605.8667 577.3333C631.4667 551.7333 644.2667 517.6 644.2667 479.2V445.0667H379.7333V474.9333ZM413.8667 167.7333H345.6V236H413.8667V167.7333ZM546.1333 167.7333H477.8667V236H546.1333V167.7333ZM678.4 167.7333H610.1333V236H678.4V167.7333Z"  horiz-adv-x="1024" vert-adv-y="1024"  />

      
      <glyph glyph-name="zhangxiao" unicode="&#xE028;" d="M686.9333 154.9333C640 206.1333 571.7333 236 507.7333 236 439.4667 236 375.4667 206.1333 328.5333 154.9333 281.6 103.7333 251.7333 31.2 251.7333-41.3333H763.7333C763.7333 31.2 738.1333 103.7333 686.9333 154.9333ZM507.7333 684A209.0667 192 90 1 1 507.7333 265.8667 209.0667 192 90 1 1 507.7333 684Z"  horiz-adv-x="1024" vert-adv-y="1024"  />

      
      <glyph glyph-name="xiaosuo" unicode="&#xE029;" d="M458.6667 641.3333C617.6427 641.3333 746.6667 512.3093 746.6667 353.3333 746.6667 194.3573 617.6427 65.3333 458.6667 65.3333 299.6907 65.3333 170.6667 194.3573 170.6667 353.3333 170.6667 512.3093 299.6907 641.3333 458.6667 641.3333ZM458.6667 129.3333C582.4128 129.3333 682.6667 229.5872 682.6667 353.3333 682.6667 477.1093 582.4128 577.3333 458.6667 577.3333 334.8907 577.3333 234.6667 477.1093 234.6667 353.3333 234.6667 229.5872 334.8907 129.3333 458.6667 129.3333ZM730.1888 127.0635L820.7147 36.5632 775.4368-8.7147 684.9365 81.8112 730.1888 127.0635V127.0635Z"  horiz-adv-x="1024" vert-adv-y="1024"  />

      
      <glyph glyph-name="fuzhi" unicode="&#xE02A;" d="M662.3232 713.0761L733.6235 696.4369C912.5205 654.6253 967.1723 566.3091 925.3291 387.9701L883.4859 209.632C847.6245 55.6096 776.7467-6.6795 643.5371 6.1205 622.1909 7.8272 599.1339 11.6672 574.3701 17.6405L502.6432 34.7072C324.6003 76.9429 269.5228 164.832 311.3643 343.1701L353.2062 521.9379C361.7455 558.2029 371.9923 589.7749 384.8009 615.8003 434.7563 719.049 519.7184 746.7814 662.3232 713.0761ZM622.1909 240.7787C636.7061 240.7787 649.5147 250.1611 653.3589 264.6677 657.6256 281.7344 647.3813 299.2277 629.8752 303.4944L505.6299 335.0677C488.5504 339.3344 471.0485 329.0944 466.7776 312.0277 462.5067 294.9611 472.7552 277.4677 489.8347 273.2011L614.0757 241.632C614.4555 241.5765 614.8309 241.5211 615.1936 241.4699 617.7152 241.1029 619.9509 240.7787 622.1909 240.7787ZM747.2896 384.9835C761.8048 384.9835 774.6133 394.3701 778.4576 408.8759 782.7243 426.3684 772.48 443.8613 754.9739 447.7009L547.8997 500.1788C530.8203 504.445 513.3141 494.2054 509.0475 477.1396 504.7765 460.0738 515.0251 442.5813 532.1003 438.3147L739.1744 385.8368C739.5541 385.7826 739.9296 385.7284 740.2965 385.6751 742.8139 385.3077 745.0496 384.9835 747.2896 384.9835ZM543.2021-39.9552C554.624-36.1536 553.5488-20.7979 541.824-18.0715L492.8213-6.6795C291.7252 41.1072 222.985 152.0363 269.9503 352.9877L311.7918 531.7517C314.0668 541.1477 316.3955 550.167 318.8169 558.8096 323.7009 576.2458 306.976 593.4899 289.7856 587.8012L267.3886 580.3895C97.8863 525.7783 52.6289 436.1822 107.2794 266.8011L161.9298 98.2763C217.0074-71.1019 306.2417-116.7552 475.7419-62.1419L543.2021-39.9552Z"  horiz-adv-x="1024" vert-adv-y="1024"  />

      

  </font>
</defs>
</svg>
