<svg width="40" height="40" viewBox="0 0 40 40" fill="none" xmlns="http://www.w3.org/2000/svg">
<g filter="url(#filter0_ii_950_2622)">
<path fill-rule="evenodd" clip-rule="evenodd" d="M9.16667 3.3335C7.69391 3.3335 6.5 4.5274 6.5 6.00016V34.0002C6.5 35.4729 7.69391 36.6668 9.16667 36.6668H30.8333C32.3061 36.6668 33.5 35.4729 33.5 34.0002V11.6669L25.1668 3.33362H30.8594C30.8507 3.33354 30.842 3.3335 30.8333 3.3335H9.16667Z" fill="#7C8EEE"/>
</g>
<path d="M25.4135 25.7824C24.2887 25.6989 23.2058 25.2811 22.331 24.5293C20.6231 24.9051 18.9983 25.448 17.3737 26.1166C16.0825 28.4139 14.8744 29.5834 13.8329 29.5834C13.6246 29.5834 13.3748 29.5418 13.2081 29.4164C12.7498 29.2076 12.5 28.748 12.5 28.2886C12.5 27.9126 12.5833 26.8684 16.5406 25.1557C17.4573 23.4849 18.1652 21.7724 18.7485 19.9764C18.2485 18.9739 17.1656 16.5093 17.9152 15.2564C18.1652 14.7968 18.6652 14.5461 19.2069 14.588C19.6233 14.588 20.0398 14.7968 20.2898 15.1309C20.8315 15.8828 20.7898 17.4701 20.0815 19.8093C20.7481 21.0606 21.6213 22.1904 22.6642 23.1509C23.5392 22.9836 24.4137 22.8584 25.2885 22.8584C27.2465 22.9001 27.5381 23.8191 27.4965 24.3622C27.4965 25.7824 26.1217 25.7824 25.4135 25.7824V25.7824ZM13.7498 28.372L13.8748 28.3303C14.4579 28.1216 14.916 27.7039 15.2494 27.1607C14.6244 27.4114 14.1246 27.8291 13.7498 28.3722V28.372ZM19.29 15.8411H19.165C19.1233 15.8411 19.04 15.8411 18.9983 15.8828C18.8317 16.5928 18.9567 17.3447 19.2483 18.013C19.4983 17.303 19.4983 16.5511 19.29 15.8411V15.8411ZM19.5817 21.8978L19.54 21.9811L19.4983 21.9395C19.1233 22.9003 18.7067 23.8609 18.2485 24.7799L18.3319 24.7382V24.8216C19.2582 24.4857 20.2042 24.2067 21.1646 23.9861L21.1229 23.9445H21.2479C20.6229 23.3178 20.0398 22.6078 19.5817 21.8978V21.8978ZM25.2469 24.1116C24.8719 24.1116 24.5387 24.1116 24.1637 24.1949C24.5804 24.4039 24.9971 24.4874 25.4135 24.5293C25.7052 24.5709 25.9969 24.5293 26.2467 24.4457C26.2467 24.3203 26.08 24.1116 25.2469 24.1116Z" fill="white"/>
<path d="M32.718 10.8853L25.9478 10.8853L33.4998 18.4373L33.4998 11.6665L32.718 10.8853Z" fill="url(#paint0_linear_950_2622)"/>
<path d="M27.8333 11.6665L33.5 11.6665L25.1667 3.33317L25.1667 8.99984C25.1667 10.4726 26.3606 11.6665 27.8333 11.6665Z" fill="#D6DCFF"/>
<defs>
<filter id="filter0_ii_950_2622" x="6.5" y="3.16683" width="27" height="33.6668" filterUnits="userSpaceOnUse" color-interpolation-filters="sRGB">
<feFlood flood-opacity="0" result="BackgroundImageFix"/>
<feBlend mode="normal" in="SourceGraphic" in2="BackgroundImageFix" result="shape"/>
<feColorMatrix in="SourceAlpha" type="matrix" values="0 0 0 0 0 0 0 0 0 0 0 0 0 0 0 0 0 0 127 0" result="hardAlpha"/>
<feOffset dy="-0.333333"/>
<feGaussianBlur stdDeviation="0.0833333"/>
<feComposite in2="hardAlpha" operator="arithmetic" k2="-1" k3="1"/>
<feColorMatrix type="matrix" values="0 0 0 0 0 0 0 0 0 0 0 0 0 0 0 0 0 0 0.3 0"/>
<feBlend mode="normal" in2="shape" result="effect1_innerShadow_950_2622"/>
<feColorMatrix in="SourceAlpha" type="matrix" values="0 0 0 0 0 0 0 0 0 0 0 0 0 0 0 0 0 0 127 0" result="hardAlpha"/>
<feOffset dy="0.333333"/>
<feGaussianBlur stdDeviation="0.0833333"/>
<feComposite in2="hardAlpha" operator="arithmetic" k2="-1" k3="1"/>
<feColorMatrix type="matrix" values="0 0 0 0 1 0 0 0 0 1 0 0 0 0 1 0 0 0 0.3 0"/>
<feBlend mode="normal" in2="effect1_innerShadow_950_2622" result="effect2_innerShadow_950_2622"/>
</filter>
<linearGradient id="paint0_linear_950_2622" x1="27.6405" y1="9.19255" x2="35.1925" y2="16.7446" gradientUnits="userSpaceOnUse">
<stop stop-opacity="0.2"/>
<stop offset="1" stop-opacity="0"/>
</linearGradient>
</defs>
</svg>
